<svg xmlns="http://www.w3.org/2000/svg" viewBox="0 0 90 20" fill="#FF0000">
  <g>
    <path d="M27.9727 3.12324C27.7145 1.04423 26.0407 0.369141 24.6547 0.369141H10.0806C8.69861 0.369141 7.02087 1.05023 6.76267 3.12324C6.47067 5.47324 6.46867 7.85414 6.46667 10.2406C6.46667 12.6216 6.46867 14.9966 6.77067 17.3626C7.02467 19.5116 8.69861 20.1926 10.0806 20.1926H24.6547C26.0407 20.1926 27.7145 19.5116 27.9727 17.3626C28.2707 14.9966 28.2687 12.6216 28.2687 10.2406C28.2687 7.85414 28.2707 5.47324 27.9727 3.12324ZM18.3677 13.5916V6.24063L23.2147 9.91614L18.3677 13.5916Z"/>
    <path d="M44.6094 13.2844C44.6094 15.9984 42.3454 17.9364 39.6094 17.9364C36.8734 17.9364 34.6094 15.9984 34.6094 13.2844V3.9364H37.6094V13.2844C37.6094 14.9364 38.6094 15.9364 39.6094 15.9364C40.6094 15.9364 41.6094 14.9364 41.6094 13.2844V3.9364H44.6094V13.2844Z"/>
    <path d="M52.6094 17.9364C49.8734 17.9364 47.6094 15.9984 47.6094 13.2844V3.9364H50.6094V13.2844C50.6094 14.9364 51.6094 15.9364 52.6094 15.9364C53.6094 15.9364 54.6094 14.9364 54.6094 13.2844V3.9364H57.6094V13.2844C57.6094 15.9984 55.3454 17.9364 52.6094 17.9364Z"/>
    <path d="M65.6094 17.9364C62.8734 17.9364 60.6094 15.9984 60.6094 13.2844V3.9364H63.6094V13.2844C63.6094 14.9364 64.6094 15.9364 65.6094 15.9364C66.6094 15.9364 67.6094 14.9364 67.6094 13.2844V3.9364H70.6094V13.2844C70.6094 15.9984 68.3454 17.9364 65.6094 17.9364Z"/>
    <path d="M78.6094 17.9364C75.8734 17.9364 73.6094 15.9984 73.6094 13.2844V3.9364H76.6094V13.2844C76.6094 14.9364 77.6094 15.9364 78.6094 15.9364C79.6094 15.9364 80.6094 14.9364 80.6094 13.2844V3.9364H83.6094V13.2844C83.6094 15.9984 81.3454 17.9364 78.6094 17.9364Z"/>
    <path d="M86.6094 17.9364V3.9364H89.6094V17.9364H86.6094Z"/>
  </g>
</svg>
